<svg xmlns="http://www.w3.org/2000/svg" xmlns:xlink="http://www.w3.org/1999/xlink" width="500" zoomAndPan="magnify" viewBox="0 0 375 374.999991" height="500" preserveAspectRatio="xMidYMid meet" version="1.0"><defs><clipPath id="36b1df8c41"><path d="M 18.75 0 L 356.25 0 C 366.605469 0 375 8.394531 375 18.75 L 375 356.25 C 375 366.605469 366.605469 375 356.25 375 L 18.75 375 C 8.394531 375 0 366.605469 0 356.25 L 0 18.75 C 0 8.394531 8.394531 0 18.75 0 Z M 18.75 0 " clip-rule="nonzero"/></clipPath><clipPath id="935305e7c5"><path d="M 125 128.464844 L 365.347656 128.464844 L 365.347656 364.65625 L 125 364.65625 Z M 125 128.464844 " clip-rule="nonzero"/></clipPath><clipPath id="6a6882191d"><path d="M 357.847656 364.65625 L 132.632812 364.65625 C 128.492188 364.65625 125.132812 361.296875 125.132812 357.15625 L 125.132812 135.964844 C 125.132812 131.824219 128.492188 128.464844 132.632812 128.464844 L 357.847656 128.464844 C 361.988281 128.464844 365.347656 131.824219 365.347656 135.964844 L 365.347656 357.15625 C 365.347656 361.296875 361.988281 364.65625 357.847656 364.65625 Z M 357.847656 364.65625 " clip-rule="nonzero"/></clipPath><clipPath id="254df31e4f"><path d="M 9.640625 246.457031 L 125.132812 246.457031 L 125.132812 364.65625 L 9.640625 364.65625 Z M 9.640625 246.457031 " clip-rule="nonzero"/></clipPath><clipPath id="a519ff69b0"><path d="M 117.632812 364.65625 L 17.140625 364.65625 C 13 364.65625 9.640625 361.296875 9.640625 357.15625 L 9.640625 254.0625 C 9.640625 249.917969 13 246.5625 17.140625 246.5625 L 117.632812 246.5625 C 121.777344 246.5625 125.132812 249.917969 125.132812 254.0625 L 125.132812 357.15625 C 125.132812 361.296875 121.777344 364.65625 117.632812 364.65625 Z M 117.632812 364.65625 " clip-rule="nonzero"/></clipPath><clipPath id="2efde973e8"><path d="M 8.378906 9.5625 L 246.582031 9.5625 L 246.582031 123.328125 L 8.378906 123.328125 Z M 8.378906 9.5625 " clip-rule="nonzero"/></clipPath><clipPath id="e152d0b2a4"><path d="M 15.878906 9.5625 L 238.785156 9.5625 C 242.925781 9.5625 246.285156 12.917969 246.285156 17.0625 L 246.285156 115.828125 C 246.285156 119.972656 242.925781 123.328125 238.785156 123.328125 L 15.878906 123.328125 C 11.738281 123.328125 8.378906 119.972656 8.378906 115.828125 L 8.378906 17.0625 C 8.378906 12.917969 11.738281 9.5625 15.878906 9.5625 Z M 15.878906 9.5625 " clip-rule="nonzero"/></clipPath></defs><g clip-path="url(#36b1df8c41)"><rect x="-37.5" width="450" fill="#ffffff" y="-37.499999" height="449.999989" fill-opacity="1"/><path stroke-linecap="butt" transform="matrix(0.75, 0, 0, 0.75, 0.0000045, 0)" fill="none" stroke-linejoin="miter" d="M 24.999997 0 L 475.000056 0 C 488.807349 0 500.000059 11.19271 500.000059 25.000003 L 500.000059 475.000062 C 500.000059 488.807355 488.807349 500.000065 475.000056 500.000065 L 24.999997 500.000065 C 11.192704 500.000065 -0.000006 488.807355 -0.000006 475.000062 L -0.000006 25.000003 C -0.000006 11.19271 11.192704 0 24.999997 0 Z M 24.999997 0 " stroke="#000000" stroke-width="26" stroke-opacity="1" stroke-miterlimit="4"/></g><g clip-path="url(#935305e7c5)"><g clip-path="url(#6a6882191d)"><path fill="#7ed957" d="M 365.347656 364.65625 L 125.464844 364.65625 L 125.464844 128.464844 L 365.347656 128.464844 Z M 365.347656 364.65625 " fill-opacity="1" fill-rule="nonzero"/></g></g><g clip-path="url(#254df31e4f)"><g clip-path="url(#a519ff69b0)"><path fill="#7ed957" d="M 125.132812 364.65625 L 9.640625 364.65625 L 9.640625 246.457031 L 125.132812 246.457031 Z M 125.132812 364.65625 " fill-opacity="1" fill-rule="nonzero"/></g></g><g clip-path="url(#2efde973e8)"><g clip-path="url(#e152d0b2a4)"><path fill="#ffde59" d="M 8.378906 9.5625 L 246.136719 9.5625 L 246.136719 123.328125 L 8.378906 123.328125 Z M 8.378906 9.5625 " fill-opacity="1" fill-rule="nonzero"/></g></g><path stroke-linecap="butt" transform="matrix(0, -0.75, 0.75, 0, 246.077859, 370.412085)" fill="none" stroke-linejoin="miter" d="M 0.00257204 6.500355 L 487.768229 6.500355 " stroke="#000000" stroke-width="13" stroke-opacity="1" stroke-miterlimit="4"/><path stroke-linecap="butt" transform="matrix(0.75, 0, 0, 0.75, 2.293011, 120.897618)" fill="none" stroke-linejoin="miter" d="M -0.0000569806 6.501092 L 487.770808 6.501092 " stroke="#000000" stroke-width="13" stroke-opacity="1" stroke-miterlimit="4"/><path stroke-linecap="butt" transform="matrix(0.75, 0, 0, 0.75, 6.879026, 244.352358)" fill="none" stroke-linejoin="miter" d="M -0.000159198 6.49894 L 487.770706 6.49894 " stroke="#000000" stroke-width="13" stroke-opacity="1" stroke-miterlimit="4"/><path stroke-linecap="butt" transform="matrix(0, -0.75, 0.75, 0, 122.623122, 374.998101)" fill="none" stroke-linejoin="miter" d="M -0.00253203 6.502504 L 487.768333 6.502504 " stroke="#000000" stroke-width="13" stroke-opacity="1" stroke-miterlimit="4"/></svg>